<svg width="24" height="24" viewBox="0 0 24 24" fill="none" xmlns="http://www.w3.org/2000/svg">
<path d="M21.8478 8.62875C22.052 8.2695 22.5088 8.14282 22.8688 8.34604C23.2292 8.54992 23.3566 9.00802 23.153 9.3685L22.4996 8.99936C23.0769 9.32587 23.1454 9.36388 23.153 9.3685L23.15 9.37143C23.1492 9.37288 23.1484 9.37508 23.1471 9.37729C23.1445 9.38183 23.1413 9.38873 23.1368 9.39633C23.1279 9.41173 23.115 9.43359 23.0988 9.46078C23.0658 9.51575 23.0176 9.5941 22.9552 9.69223C22.8301 9.88877 22.6459 10.1659 22.4044 10.4964C21.9219 11.1568 21.206 12.0383 20.2701 12.9207C20.2212 12.9669 20.1695 13.0108 20.1193 13.057L22.2433 15.181L21.1813 16.243L18.962 14.0238C17.9072 14.8193 16.6543 15.5411 15.215 15.9969L16.1129 19.347L14.6642 19.7352L13.756 16.347C13.1937 16.4418 12.6085 16.4994 11.9996 16.4994C11.2563 16.4993 10.5479 16.4179 9.87414 16.2796L8.94983 19.7352L7.5011 19.347L8.42981 15.8768C7.07243 15.396 5.88785 14.6854 4.88928 13.9124L2.56018 16.243L1.49963 15.181L3.74377 12.9354C3.7388 12.9307 3.73408 12.9254 3.72912 12.9207C2.79323 12.0383 2.07732 11.1568 1.59485 10.4964C1.35334 10.1659 1.16913 9.88875 1.04406 9.69223C0.981618 9.5941 0.933406 9.51573 0.90051 9.46078C0.884225 9.43358 0.871371 9.41171 0.862424 9.39633C0.858007 9.38872 0.854757 9.3818 0.85217 9.37729C0.850917 9.37507 0.850055 9.37286 0.849241 9.37143L0.847776 9.36996C0.85416 9.36602 0.916085 9.32945 1.49963 8.99936L0.846311 9.3685C0.642785 9.00812 0.770293 8.54996 1.13049 8.34604C1.49045 8.14265 1.94717 8.26953 2.15149 8.62875L2.15295 8.63168C2.15409 8.63367 2.1561 8.63728 2.15881 8.64194C2.16468 8.65203 2.17505 8.66847 2.18811 8.69028C2.21437 8.73414 2.25507 8.80073 2.30969 8.88657C2.41948 9.05909 2.58565 9.30969 2.80627 9.61166C3.24844 10.2168 3.90529 11.0231 4.75891 11.828C6.47434 13.4454 8.92381 14.9993 11.9996 14.9994C15.0755 14.9994 17.5249 13.4454 19.2404 11.828C20.094 11.0231 20.7508 10.2169 21.193 9.61166C21.4136 9.3097 21.5798 9.05911 21.6896 8.88657C21.7442 8.80074 21.7849 8.73417 21.8112 8.69028C21.8242 8.66849 21.8346 8.65206 21.8405 8.64194C21.8431 8.6373 21.8452 8.63371 21.8463 8.63168L21.8478 8.62875Z" fill="#333333"/>
</svg>
