<svg width="24" height="24" viewBox="0 0 24 24" fill="none" xmlns="http://www.w3.org/2000/svg">
<path fill-rule="evenodd" clip-rule="evenodd" d="M11.9996 9.75C14.0707 9.75 15.7496 11.4289 15.7496 13.5C15.7496 15.5711 14.0707 17.25 11.9996 17.25C9.92874 17.2498 8.24965 15.571 8.24965 13.5C8.24965 11.429 9.92874 9.75019 11.9996 9.75ZM11.9996 11.25C10.7572 11.2502 9.74965 12.2575 9.74965 13.5C9.74965 14.7425 10.7572 15.7498 11.9996 15.75C13.2423 15.75 14.2496 14.7426 14.2496 13.5C14.2496 12.2574 13.2423 11.25 11.9996 11.25Z" fill="#333333"/>
<path fill-rule="evenodd" clip-rule="evenodd" d="M16.1129 3.38818L15.2736 6.52002C16.6222 6.95533 17.8065 7.62301 18.8156 8.36426L21.1813 6L22.2433 7.06055L19.9845 9.31787C20.0817 9.4052 20.1776 9.49136 20.2702 9.57861C21.2061 10.461 21.9219 11.3426 22.4044 12.0029C22.6459 12.3335 22.8301 12.6106 22.9552 12.8071C23.0177 12.9052 23.0659 12.9836 23.0988 13.0386C23.115 13.0658 23.1279 13.0876 23.1369 13.103C23.1413 13.1106 23.1445 13.1175 23.1471 13.1221C23.1484 13.1243 23.1492 13.1265 23.15 13.1279L23.1515 13.1294L22.4996 13.5L23.1515 13.8706L23.15 13.8721C23.1492 13.8735 23.1484 13.8757 23.1471 13.8779C23.1445 13.8825 23.1413 13.8894 23.1369 13.897C23.1279 13.9124 23.115 13.9342 23.0988 13.9614C23.0659 14.0164 23.0177 14.0948 22.9552 14.1929C22.8301 14.3894 22.6459 14.6665 22.4044 14.9971C21.9219 15.6574 21.2061 16.539 20.2702 17.4214C18.4061 19.1788 15.6053 21 11.9996 21C8.39408 20.9999 5.59313 19.1788 3.72914 17.4214C2.79325 16.539 2.07733 15.6574 1.59486 14.9971C1.35337 14.6665 1.16915 14.3894 1.04408 14.1929C0.981638 14.0947 0.933425 14.0164 0.900529 13.9614C0.884245 13.9342 0.87139 13.9124 0.862443 13.897C0.858027 13.8894 0.854775 13.8824 0.852189 13.8779C0.850937 13.8757 0.850073 13.8735 0.84926 13.8721L0.847795 13.8706L1.49965 13.5L0.847795 13.1294L0.84926 13.1279C0.850073 13.1265 0.850937 13.1243 0.852189 13.1221C0.854775 13.1176 0.858027 13.1106 0.862443 13.103C0.87139 13.0876 0.884245 13.0658 0.900529 13.0386C0.933425 12.9836 0.981638 12.9053 1.04408 12.8071C1.16915 12.6106 1.35337 12.3335 1.59486 12.0029C2.07733 11.3426 2.79325 10.461 3.72914 9.57861C3.778 9.53255 3.82841 9.48704 3.87856 9.44092L1.49965 7.06055L2.5602 6L5.03578 8.47412C5.98855 7.75545 7.10364 7.09688 8.37123 6.64014L7.50111 3.38818L8.94984 3L9.81557 6.23145C10.5068 6.0855 11.2347 6.00002 11.9996 6C12.63 6 13.2356 6.05842 13.8161 6.15967L14.6642 3L16.1129 3.38818ZM11.9996 7.5C8.92384 7.50012 6.47436 9.05398 4.75893 10.6714C3.90531 11.4763 3.24845 12.2825 2.80629 12.8877C2.62993 13.1291 2.48874 13.338 2.38295 13.5C2.48874 13.662 2.62993 13.8709 2.80629 14.1123C3.24845 14.7175 3.90531 15.5237 4.75893 16.3286C6.47436 17.946 8.92384 19.4999 11.9996 19.5C15.0755 19.5 17.5249 17.946 19.2404 16.3286C20.094 15.5238 20.7508 14.7175 21.193 14.1123C21.3691 13.8713 21.5091 13.6619 21.6149 13.5C21.5091 13.3381 21.3691 13.1287 21.193 12.8877C20.7508 12.2825 20.094 11.4762 19.2404 10.6714C17.5249 9.05398 15.0755 7.5 11.9996 7.5Z" fill="#333333"/>
<path d="M1.49965 13.5L0.84633 13.8691C0.717076 13.6403 0.717076 13.3597 0.84633 13.1309L1.49965 13.5Z" fill="#333333"/>
<path d="M23.153 13.1309C23.2823 13.3598 23.2823 13.6402 23.153 13.8691L22.4996 13.5L23.153 13.1309Z" fill="#333333"/>
</svg>
